#tb 0: 1/9
#media_type 0: video
#codec_id 0: rawvideo
#dimensions 0: 320x140
#sar 0: 0/1
#tb 1: 1/11025
#media_type 1: audio
#codec_id 1: pcm_s16le
#sample_rate 1: 11025
#channel_layout 1: 4
0,          0,          0,        1,   134400, 0xc218b00c
1,          0,          0,     8884,    17768, 0x07df135c
0,          1,          1,        1,   134400, 0x114daf7c
0,          2,          2,        1,   134400, 0xe14db24c
0,          3,          3,        1,   134400, 0x88c71df7
0,          4,          4,        1,   134400, 0xc98c09fc
0,          5,          5,        1,   134400, 0xf7c2e7a9
0,          6,          6,        1,   134400, 0xf54f304f
0,          7,          7,        1,   134400, 0x67370fdd
1,       8884,       8884,     1110,     2220, 0x44953646
0,          8,          8,        1,   134400, 0xe70f43cd
1,       9994,       9994,     1110,     2220, 0x256b3329
0,          9,          9,        1,   134400, 0xad74c06f
1,      11104,      11104,     1111,     2222, 0x344d20c6
1,      12215,      12215,     1110,     2220, 0xd8ee20db
0,         10,         10,        1,   134400, 0xef42fdf2
1,      13325,      13325,     1111,     2222, 0x46d70aa2
0,         11,         11,        1,   134400, 0xa14cc4b8
1,      14436,      14436,     1110,     2220, 0xbe0a2213
0,         12,         12,        1,   134400, 0xc6e57381
1,      15546,      15546,     1111,     2222, 0x4ee0fd07
0,         13,         13,        1,   134400, 0x74b4804b
1,      16657,      16657,     1110,     2220, 0x709dfe87
0,         14,         14,        1,   134400, 0xe0863d6f
1,      17767,      17767,     1111,     2222, 0xbb382521
0,         15,         15,        1,   134400, 0x90b6d03c
1,      18878,      18878,     1110,     2220, 0x6dba1d2d
0,         16,         16,        1,   134400, 0x3d0409fd
1,      19988,      19988,     1111,     2222, 0xbc4cdd6d
0,         17,         17,        1,   134400, 0xc02e09a4
1,      21099,      21099,     1110,     2220, 0x54340d2c
0,         18,         18,        1,   134400, 0xa3515997
1,      22209,      22209,     1110,     2220, 0x8925d335
0,         19,         19,        1,   134400, 0xc0fda122
1,      23319,      23319,     1111,     2222, 0xa39bd15f
1,      24430,      24430,     1110,     2220, 0x6875f632
0,         20,         20,        1,   134400, 0x5380d707
1,      25540,      25540,     1111,     2222, 0xda46be57
0,         21,         21,        1,   134400, 0xcc19c085
1,      26651,      26651,     1110,     2220, 0xd591eb44
0,         22,         22,        1,   134400, 0x8041e977
1,      27761,      27761,     1111,     2222, 0x33afd17f
0,         23,         23,        1,   134400, 0xb96b2bea
1,      28872,      28872,     1110,     2220, 0xd97be03b
0,         24,         24,        1,   134400, 0xcc977ca7
1,      29982,      29982,     1111,     2222, 0x3b71e82e
0,         25,         25,        1,   134400, 0xe37abb34
1,      31093,      31093,     1110,     2220, 0x95fbec2b
0,         26,         26,        1,   134400, 0xce488baa
1,      32203,      32203,     1110,     2220, 0xae3a1c1e
0,         27,         27,        1,   134400, 0xa0734e8a
1,      33313,      33313,     1111,     2222, 0x46cd0973
0,         28,         28,        1,   134400, 0x6b5ce0b0
1,      34424,      34424,     1110,     2220, 0x7b28f3f6
0,         29,         29,        1,   134400, 0xf207f938
1,      35534,      35534,     1111,     2222, 0xa2a5bc47
1,      36645,      36645,     1110,     2220, 0x4727df63
0,         30,         30,        1,   134400, 0xe10060f8
1,      37755,      37755,     1111,     2222, 0xdf53f4e2
0,         31,         31,        1,   134400, 0xaebe6b37
1,      38866,      38866,     1110,     2220, 0x469c1e8f
0,         32,         32,        1,   134400, 0x08ea5c75
1,      39976,      39976,     1111,     2222, 0x3c541799
0,         33,         33,        1,   134400, 0x05c6b514
1,      41087,      41087,     1110,     2220, 0xc8d21fee
0,         34,         34,        1,   134400, 0x68cb3703
1,      42197,      42197,     1111,     2222, 0x5f52126f
0,         35,         35,        1,   134400, 0x48867fd0
1,      43308,      43308,     1110,     2220, 0x06a9ff18
0,         36,         36,        1,   134400, 0xc53eda30
1,      44418,      44418,     1110,     2220, 0x84f9aa2b
0,         37,         37,        1,   134400, 0x0c1b198d
1,      45528,      45528,     1111,     2222, 0xe0518c83
0,         38,         38,        1,   134400, 0xc8ac5bc8
1,      46639,      46639,     1110,     2220, 0xc85ee26c
1,      47749,      47749,     1111,     2222, 0xda23fd2d
0,         39,         39,        1,   134400, 0x9e35240d
1,      48860,      48860,     1110,     2220, 0x7ee2e818
0,         40,         40,        1,   134400, 0x885d142f
1,      49970,      49970,     1111,     2222, 0x45eb0465
0,         41,         41,        1,   134400, 0x207cb4ac
1,      51081,      51081,     1110,     2220, 0xf3e90549
0,         42,         42,        1,   134400, 0x0abe748b
1,      52191,      52191,     1111,     2222, 0x17aacf3d
0,         43,         43,        1,   134400, 0xf13e991b
1,      53302,      53302,     1110,     2220, 0x6cb7e325
0,         44,         44,        1,   134400, 0x2544248d
1,      54412,      54412,     1110,     2220, 0x20164553
0,         45,         45,        1,   134400, 0x5444bb22
1,      55522,      55522,     1111,     2222, 0x00000000
0,         46,         46,        1,   134400, 0xc5a8f55a
1,      56633,      56633,     1110,     2220, 0x00000000
0,         47,         47,        1,   134400, 0xe6006820
1,      57743,      57743,     1111,     2222, 0x00000000
0,         48,         48,        1,   134400, 0x2a34239d
1,      58854,      58854,     1110,     2220, 0x00000000
1,      59964,      59964,     1111,     2222, 0x00000000
0,         49,         49,        1,   134400, 0x26deac5b
1,      61075,      61075,     1110,     2220, 0x00000000
0,         50,         50,        1,   134400, 0x82c2c0a9
1,      62185,      62185,     1111,     2222, 0x00000000
0,         51,         51,        1,   134400, 0xcdd8daba
1,      63296,      63296,     1225,     2450, 0x00000000
0,         52,         52,        1,   134400, 0x5a1a2105
1,      64521,      64521,     1225,     2450, 0x00000000
0,         53,         53,        1,   134400, 0x2ad43604
1,      65746,      65746,     1225,     2450, 0x00000000
0,         54,         54,        1,   134400, 0xa9b58f35
1,      66971,      66971,     1225,     2450, 0x00000000
0,         55,         55,        1,   134400, 0x0e37a7a8
1,      68196,      68196,     1225,     2450, 0x00000000
0,         56,         56,        1,   134400, 0xd288eef7
1,      69421,      69421,     1225,     2450, 0x00000000
1,      70646,      70646,     1225,     2450, 0x00000000
